<?xml version="1.0" encoding="UTF-8" standalone="no"?>
<!DOCTYPE svg PUBLIC "-//W3C//DTD SVG 1.1//EN"
 "http://www.w3.org/Graphics/SVG/1.1/DTD/svg11.dtd">
<!-- Generated by graphviz version 2.28.0 (20120220.1056)
 -->
<!-- Title: G Pages: 1 -->
<svg width="410pt" height="670pt"
 viewBox="0.00 0.00 410.00 670.00" xmlns="http://www.w3.org/2000/svg" xmlns:xlink="http://www.w3.org/1999/xlink">
<g id="graph1" class="graph" transform="scale(1 1) rotate(0) translate(4 666)">
<title>G</title>
<polygon fill="white" stroke="white" points="-4,5 -4,-666 407,-666 407,5 -4,5"/>
<g id="graph2" class="cluster"><title>cluster_default</title>
<polyline fill="none" stroke="none" points="182,-8 382,-8 "/>
<path fill="none" stroke="none" d="M382,-8C388,-8 394,-14 394,-20"/>
<polyline fill="none" stroke="none" points="394,-20 394,-642 "/>
<path fill="none" stroke="none" d="M394,-642C394,-648 388,-654 382,-654"/>
<polyline fill="none" stroke="none" points="382,-654 182,-654 "/>
<path fill="none" stroke="none" d="M182,-654C176,-654 170,-648 170,-642"/>
<polyline fill="none" stroke="none" points="170,-642 170,-20 "/>
<path fill="none" stroke="none" d="M170,-20C170,-14 176,-8 182,-8"/>
</g>
<!-- \\GoCardless -->
<g id="node2" class="node"><title>\\GoCardless</title>
<a xlink:href="db_gocardless.html" xlink:title="GoCardless" target="_parent">
<polygon fill="none" stroke="black" points="323.011,-646 240.989,-646 240.989,-610 323.011,-610 323.011,-646"/>
<text text-anchor="middle" x="282" y="-623.6" font-family="Courier,monospace" font-size="11.00">GoCardless</text>
</a>
</g>
<!-- \\GoCardless_Bill -->
<g id="node3" class="node"><title>\\GoCardless_Bill</title>
<a xlink:href="db_lib_bill.html" xlink:title="GoCardless_Bill" target="_parent">
<polygon fill="none" stroke="black" points="339.516,-592 224.484,-592 224.484,-556 339.516,-556 339.516,-592"/>
<text text-anchor="middle" x="282" y="-569.6" font-family="Courier,monospace" font-size="11.00">GoCardless_Bill</text>
</a>
</g>
<!-- \\GoCardless_Client -->
<g id="node4" class="node"><title>\\GoCardless_Client</title>
<a xlink:href="db_lib_client.html" xlink:title="GoCardless_Client" target="_parent">
<polygon fill="none" stroke="black" points="346.218,-538 217.782,-538 217.782,-502 346.218,-502 346.218,-538"/>
<text text-anchor="middle" x="282" y="-515.6" font-family="Courier,monospace" font-size="11.00">GoCardless_Client</text>
</a>
</g>
<!-- \\GoCardless_ClientException -->
<g id="node5" class="node"><title>\\GoCardless_ClientException</title>
<a xlink:href="db_lib_exceptions.html" xlink:title="GoCardless_ClientException" target="_parent">
<polygon fill="none" stroke="black" points="375.628,-484 188.372,-484 188.372,-448 375.628,-448 375.628,-484"/>
<text text-anchor="middle" x="282" y="-461.6" font-family="Courier,monospace" font-size="11.00">GoCardless_ClientException</text>
</a>
</g>
<!-- \\Exception -->
<g id="node15" class="node"><title>\\Exception</title>
<ellipse fill="none" stroke="black" cx="53" cy="-385" rx="52.7417" ry="18"/>
<text text-anchor="middle" x="53" y="-379.4" font-family="Times,serif" font-size="14.00" fill="gray">\Exception</text>
</g>
<!-- \\GoCardless_ClientException&#45;&gt;\\Exception -->
<g id="edge3" class="edge"><title>\\GoCardless_ClientException&#45;&gt;\\Exception</title>
<path fill="none" stroke="black" d="M198.93,-447.977C189.096,-445.249 179.265,-442.247 170,-439 143.036,-429.548 113.883,-415.962 91.549,-404.782"/>
<polygon fill="none" stroke="black" points="92.923,-401.555 82.4207,-400.158 89.7592,-407.799 92.923,-401.555"/>
</g>
<!-- \\GoCardless_ArgumentsException -->
<g id="node6" class="node"><title>\\GoCardless_ArgumentsException</title>
<a xlink:href="db_lib_exceptions.html" xlink:title="GoCardless_ArgumentsException" target="_parent">
<polygon fill="none" stroke="black" points="385.932,-430 178.068,-430 178.068,-394 385.932,-394 385.932,-430"/>
<text text-anchor="middle" x="282" y="-407.6" font-family="Courier,monospace" font-size="11.00">GoCardless_ArgumentsException</text>
</a>
</g>
<!-- \\GoCardless_ArgumentsException&#45;&gt;\\Exception -->
<g id="edge5" class="edge"><title>\\GoCardless_ArgumentsException&#45;&gt;\\Exception</title>
<path fill="none" stroke="black" d="M178.127,-399.764C155.95,-397.126 133.228,-394.424 113.386,-392.064"/>
<polygon fill="none" stroke="black" points="113.634,-388.568 103.291,-390.863 112.807,-395.519 113.634,-388.568"/>
</g>
<!-- \\GoCardless_ApiException -->
<g id="node7" class="node"><title>\\GoCardless_ApiException</title>
<a xlink:href="db_lib_exceptions.html" xlink:title="GoCardless_ApiException" target="_parent">
<polygon fill="none" stroke="black" points="365.825,-376 198.175,-376 198.175,-340 365.825,-340 365.825,-376"/>
<text text-anchor="middle" x="282" y="-353.6" font-family="Courier,monospace" font-size="11.00">GoCardless_ApiException</text>
</a>
</g>
<!-- \\GoCardless_ApiException&#45;&gt;\\Exception -->
<g id="edge7" class="edge"><title>\\GoCardless_ApiException&#45;&gt;\\Exception</title>
<path fill="none" stroke="black" d="M198.084,-367.862C169.908,-371.214 139.015,-374.888 113.085,-377.972"/>
<polygon fill="none" stroke="black" points="112.556,-374.51 103.039,-379.167 113.383,-381.461 112.556,-374.51"/>
</g>
<!-- \\GoCardless_SignatureException -->
<g id="node8" class="node"><title>\\GoCardless_SignatureException</title>
<a xlink:href="db_lib_exceptions.html" xlink:title="GoCardless_SignatureException" target="_parent">
<polygon fill="none" stroke="black" points="385.932,-322 178.068,-322 178.068,-286 385.932,-286 385.932,-322"/>
<text text-anchor="middle" x="282" y="-299.6" font-family="Courier,monospace" font-size="11.00">GoCardless_SignatureException</text>
</a>
</g>
<!-- \\GoCardless_SignatureException&#45;&gt;\\Exception -->
<g id="edge9" class="edge"><title>\\GoCardless_SignatureException&#45;&gt;\\Exception</title>
<path fill="none" stroke="black" d="M198.93,-322.023C189.096,-324.751 179.265,-327.753 170,-331 143.036,-340.452 113.883,-354.038 91.549,-365.218"/>
<polygon fill="none" stroke="black" points="89.7592,-362.201 82.4207,-369.842 92.923,-368.445 89.7592,-362.201"/>
</g>
<!-- \\GoCardless_Merchant -->
<g id="node9" class="node"><title>\\GoCardless_Merchant</title>
<a xlink:href="db_lib_merchant.html" xlink:title="GoCardless_Merchant" target="_parent">
<polygon fill="none" stroke="black" points="352.921,-268 211.079,-268 211.079,-232 352.921,-232 352.921,-268"/>
<text text-anchor="middle" x="282" y="-245.6" font-family="Courier,monospace" font-size="11.00">GoCardless_Merchant</text>
</a>
</g>
<!-- \\GoCardless_PreAuthorization -->
<g id="node10" class="node"><title>\\GoCardless_PreAuthorization</title>
<a xlink:href="db_lib_pre_authorization.html" xlink:title="GoCardless_PreAuthorization" target="_parent">
<polygon fill="none" stroke="black" points="379.229,-214 184.771,-214 184.771,-178 379.229,-178 379.229,-214"/>
<text text-anchor="middle" x="282" y="-191.6" font-family="Courier,monospace" font-size="11.00">GoCardless_PreAuthorization</text>
</a>
</g>
<!-- \\GoCardless_Subscription -->
<g id="node11" class="node"><title>\\GoCardless_Subscription</title>
<a xlink:href="db_lib_subscription.html" xlink:title="GoCardless_Subscription" target="_parent">
<polygon fill="none" stroke="black" points="365.825,-160 198.175,-160 198.175,-124 365.825,-124 365.825,-160"/>
<text text-anchor="middle" x="282" y="-137.6" font-family="Courier,monospace" font-size="11.00">GoCardless_Subscription</text>
</a>
</g>
<!-- \\GoCardless_User -->
<g id="node12" class="node"><title>\\GoCardless_User</title>
<a xlink:href="db_lib_user.html" xlink:title="GoCardless_User" target="_parent">
<polygon fill="none" stroke="black" points="339.516,-106 224.484,-106 224.484,-70 339.516,-70 339.516,-106"/>
<text text-anchor="middle" x="282" y="-83.6" font-family="Courier,monospace" font-size="11.00">GoCardless_User</text>
</a>
</g>
<!-- \\Utils -->
<g id="node13" class="node"><title>\\Utils</title>
<a xlink:href="db_lib_utils.html" xlink:title="Utils" target="_parent">
<polygon fill="none" stroke="black" points="309,-52 255,-52 255,-16 309,-16 309,-52"/>
<text text-anchor="middle" x="282" y="-29.6" font-family="Courier,monospace" font-size="11.00">Utils</text>
</a>
</g>
</g>
</svg>
